<mxfile host="app.diagrams.net" modified="2020-08-28T09:27:49.086Z" agent="5.0 (Windows)" etag="eUYTSiUYXfm7PRk7vC_N" version="13.6.5" type="github">
  <diagram id="0RUWXyTzMRWXxpnDIzsa" name="Page-1">
    <mxGraphModel dx="1038" dy="547" grid="1" gridSize="10" guides="1" tooltips="1" connect="1" arrows="1" fold="1" page="1" pageScale="1" pageWidth="1169" pageHeight="827" math="0" shadow="0">
      <root>
        <mxCell id="0" />
        <mxCell id="1" parent="0" />
        <mxCell id="425jPI8e1DpLv5dlSBej-1" value="Tracking Court Process" style="swimlane;html=1;childLayout=stackLayout;resizeParent=1;resizeParentMax=0;horizontal=1;startSize=20;horizontalStack=0;" vertex="1" parent="1">
          <mxGeometry x="40" y="30" width="1120" height="540" as="geometry" />
        </mxCell>
        <mxCell id="425jPI8e1DpLv5dlSBej-2" value="Agency/External" style="swimlane;html=1;startSize=20;horizontal=0;" vertex="1" parent="425jPI8e1DpLv5dlSBej-1">
          <mxGeometry y="20" width="1120" height="150" as="geometry" />
        </mxCell>
        <mxCell id="425jPI8e1DpLv5dlSBej-6" value="Start" style="rounded=1;whiteSpace=wrap;html=1;" vertex="1" parent="425jPI8e1DpLv5dlSBej-2">
          <mxGeometry x="60" y="10" width="90" height="40" as="geometry" />
        </mxCell>
        <mxCell id="425jPI8e1DpLv5dlSBej-7" value="Legal matter lodged in court" style="rounded=0;whiteSpace=wrap;html=1;" vertex="1" parent="425jPI8e1DpLv5dlSBej-2">
          <mxGeometry x="45" y="80" width="120" height="60" as="geometry" />
        </mxCell>
        <mxCell id="425jPI8e1DpLv5dlSBej-8" value="" style="endArrow=classic;html=1;exitX=0.5;exitY=1;exitDx=0;exitDy=0;" edge="1" parent="425jPI8e1DpLv5dlSBej-2" source="425jPI8e1DpLv5dlSBej-6" target="425jPI8e1DpLv5dlSBej-7">
          <mxGeometry width="50" height="50" relative="1" as="geometry">
            <mxPoint x="420" y="260" as="sourcePoint" />
            <mxPoint x="470" y="210" as="targetPoint" />
          </mxGeometry>
        </mxCell>
        <mxCell id="425jPI8e1DpLv5dlSBej-3" value="CS" style="swimlane;html=1;startSize=20;horizontal=0;" vertex="1" parent="425jPI8e1DpLv5dlSBej-1">
          <mxGeometry y="170" width="1120" height="130" as="geometry" />
        </mxCell>
        <mxCell id="425jPI8e1DpLv5dlSBej-30" value="End" style="rounded=1;whiteSpace=wrap;html=1;" vertex="1" parent="425jPI8e1DpLv5dlSBej-3">
          <mxGeometry x="1030" y="42.5" width="80" height="45" as="geometry" />
        </mxCell>
        <mxCell id="425jPI8e1DpLv5dlSBej-22" value="Track progress and outcome of court matters" style="whiteSpace=wrap;html=1;rounded=0;" vertex="1" parent="425jPI8e1DpLv5dlSBej-3">
          <mxGeometry x="830" y="35" width="120" height="60" as="geometry" />
        </mxCell>
        <mxCell id="425jPI8e1DpLv5dlSBej-20" value="Manage court relevant dates" style="whiteSpace=wrap;html=1;rounded=0;" vertex="1" parent="425jPI8e1DpLv5dlSBej-3">
          <mxGeometry x="670" y="35" width="120" height="60" as="geometry" />
        </mxCell>
        <mxCell id="425jPI8e1DpLv5dlSBej-18" value="Review External counsel documents, comments and records" style="whiteSpace=wrap;html=1;rounded=0;" vertex="1" parent="425jPI8e1DpLv5dlSBej-3">
          <mxGeometry x="510" y="35" width="120" height="60" as="geometry" />
        </mxCell>
        <mxCell id="425jPI8e1DpLv5dlSBej-9" value="Recording details of legal matter" style="whiteSpace=wrap;html=1;rounded=0;" vertex="1" parent="425jPI8e1DpLv5dlSBej-3">
          <mxGeometry x="45" y="35" width="120" height="60" as="geometry" />
        </mxCell>
        <mxCell id="425jPI8e1DpLv5dlSBej-12" value="" style="edgeStyle=orthogonalEdgeStyle;rounded=0;orthogonalLoop=1;jettySize=auto;html=1;" edge="1" parent="425jPI8e1DpLv5dlSBej-3" source="425jPI8e1DpLv5dlSBej-9" target="425jPI8e1DpLv5dlSBej-11">
          <mxGeometry relative="1" as="geometry" />
        </mxCell>
        <mxCell id="425jPI8e1DpLv5dlSBej-11" value="Report legal matter to agencies external counsel" style="whiteSpace=wrap;html=1;rounded=0;" vertex="1" parent="425jPI8e1DpLv5dlSBej-3">
          <mxGeometry x="210" y="35" width="120" height="60" as="geometry" />
        </mxCell>
        <mxCell id="425jPI8e1DpLv5dlSBej-15" value="" style="edgeStyle=orthogonalEdgeStyle;rounded=0;orthogonalLoop=1;jettySize=auto;html=1;" edge="1" parent="425jPI8e1DpLv5dlSBej-3" source="425jPI8e1DpLv5dlSBej-13" target="425jPI8e1DpLv5dlSBej-11">
          <mxGeometry relative="1" as="geometry" />
        </mxCell>
        <mxCell id="425jPI8e1DpLv5dlSBej-13" value="Consultations with Attorney general" style="shape=parallelogram;perimeter=parallelogramPerimeter;whiteSpace=wrap;html=1;fixedSize=1;rounded=0;" vertex="1" parent="425jPI8e1DpLv5dlSBej-3">
          <mxGeometry x="370" y="35" width="120" height="60" as="geometry" />
        </mxCell>
        <mxCell id="425jPI8e1DpLv5dlSBej-21" value="" style="edgeStyle=orthogonalEdgeStyle;rounded=0;orthogonalLoop=1;jettySize=auto;html=1;" edge="1" parent="425jPI8e1DpLv5dlSBej-3" source="425jPI8e1DpLv5dlSBej-18" target="425jPI8e1DpLv5dlSBej-20">
          <mxGeometry relative="1" as="geometry" />
        </mxCell>
        <mxCell id="425jPI8e1DpLv5dlSBej-23" value="" style="edgeStyle=orthogonalEdgeStyle;rounded=0;orthogonalLoop=1;jettySize=auto;html=1;" edge="1" parent="425jPI8e1DpLv5dlSBej-3" source="425jPI8e1DpLv5dlSBej-20" target="425jPI8e1DpLv5dlSBej-22">
          <mxGeometry relative="1" as="geometry" />
        </mxCell>
        <mxCell id="425jPI8e1DpLv5dlSBej-4" value="External Counsel" style="swimlane;html=1;startSize=20;horizontal=0;" vertex="1" parent="425jPI8e1DpLv5dlSBej-1">
          <mxGeometry y="300" width="1120" height="120" as="geometry" />
        </mxCell>
        <mxCell id="425jPI8e1DpLv5dlSBej-16" value="Review and share feedback and documents" style="whiteSpace=wrap;html=1;rounded=0;" vertex="1" parent="425jPI8e1DpLv5dlSBej-4">
          <mxGeometry x="370" y="50" width="120" height="60" as="geometry" />
        </mxCell>
        <mxCell id="425jPI8e1DpLv5dlSBej-10" value="" style="edgeStyle=orthogonalEdgeStyle;rounded=0;orthogonalLoop=1;jettySize=auto;html=1;" edge="1" parent="425jPI8e1DpLv5dlSBej-1" source="425jPI8e1DpLv5dlSBej-7" target="425jPI8e1DpLv5dlSBej-9">
          <mxGeometry relative="1" as="geometry" />
        </mxCell>
        <mxCell id="425jPI8e1DpLv5dlSBej-19" value="" style="edgeStyle=orthogonalEdgeStyle;rounded=0;orthogonalLoop=1;jettySize=auto;html=1;" edge="1" parent="425jPI8e1DpLv5dlSBej-1" source="425jPI8e1DpLv5dlSBej-16" target="425jPI8e1DpLv5dlSBej-18">
          <mxGeometry relative="1" as="geometry" />
        </mxCell>
        <mxCell id="425jPI8e1DpLv5dlSBej-17" value="" style="edgeStyle=orthogonalEdgeStyle;rounded=0;orthogonalLoop=1;jettySize=auto;html=1;" edge="1" parent="425jPI8e1DpLv5dlSBej-1" source="425jPI8e1DpLv5dlSBej-13" target="425jPI8e1DpLv5dlSBej-16">
          <mxGeometry relative="1" as="geometry" />
        </mxCell>
        <mxCell id="425jPI8e1DpLv5dlSBej-5" value="Finance" style="swimlane;html=1;startSize=20;horizontal=0;" vertex="1" parent="425jPI8e1DpLv5dlSBej-1">
          <mxGeometry y="420" width="1120" height="120" as="geometry" />
        </mxCell>
        <mxCell id="425jPI8e1DpLv5dlSBej-27" value="Manage legal fees and invoices" style="shape=process;whiteSpace=wrap;html=1;backgroundOutline=1;" vertex="1" parent="425jPI8e1DpLv5dlSBej-5">
          <mxGeometry x="830" y="30" width="120" height="60" as="geometry" />
        </mxCell>
        <mxCell id="425jPI8e1DpLv5dlSBej-29" value="" style="edgeStyle=orthogonalEdgeStyle;rounded=0;orthogonalLoop=1;jettySize=auto;html=1;entryX=0.5;entryY=1;entryDx=0;entryDy=0;" edge="1" parent="425jPI8e1DpLv5dlSBej-1" source="425jPI8e1DpLv5dlSBej-27" target="425jPI8e1DpLv5dlSBej-22">
          <mxGeometry relative="1" as="geometry">
            <mxPoint x="890" y="370" as="targetPoint" />
          </mxGeometry>
        </mxCell>
        <mxCell id="425jPI8e1DpLv5dlSBej-32" value="" style="edgeStyle=orthogonalEdgeStyle;rounded=0;orthogonalLoop=1;jettySize=auto;html=1;" edge="1" parent="1" source="425jPI8e1DpLv5dlSBej-22">
          <mxGeometry relative="1" as="geometry">
            <mxPoint x="1070" y="265" as="targetPoint" />
          </mxGeometry>
        </mxCell>
      </root>
    </mxGraphModel>
  </diagram>
</mxfile>
